<svg xmlns="http://www.w3.org/2000/svg" viewBox="0 0 48 48"><rect width="48" height="48" rx="12" fill="#2A1E1C"/><g transform="translate(2 9.33) scale(0.05867) translate(-80.0 -70.0)"><g class="vr-cab"><g class="vr-mand"><path d="M460 310 C520 322 560 338 610 340 C660 342 700 332 745 322 C770 316 790 306 806 304 C816 304 818 322 808 334 C790 352 760 368 720 384 C660 410 590 440 520 462 C500 468 482 472 470 470 C458 420 452 370 448 318 Z" fill="#FBF8F5"/><path d="M531.1 332.0Q535.9 321.3 540.0 317.7Q539.7 323.3 537.9 333.7ZM565.4 339.7Q570.0 327.5 574.5 323.1Q574.5 329.7 573.2 341.1ZM600.5 344.5Q603.9 330.7 608.3 324.9Q609.2 332.5 609.5 345.0ZM636.4 345.0Q638.3 330.3 641.9 323.7Q643.8 331.6 645.4 344.5ZM671.1 341.8Q671.6 323.4 675.1 313.9Q678.4 324.5 682.0 340.2ZM700.2 336.8Q699.9 322.0 702.6 314.9Q705.5 322.5 709.0 335.1ZM726.0 331.4Q725.0 309.2 728.3 297.0Q733.3 310.3 738.7 328.5ZM758.8 323.5Q756.8 307.5 758.9 299.3Q763.1 307.4 768.3 320.4ZM783.2 315.2Q779.9 289.6 782.2 274.6Q789.5 290.1 797.5 310.7Z" fill="#FBF8F5"/></g><path d="M96 468 C118 410 144 352 170 310 L190 272 L208 294 L230 250 L250 270 L274 226 L294 242 C312 212 332 190 354 174 C368 138 410 122 449 127 C476 131 492 150 498 170 C560 150 640 128 700 112 C720 106 730 98 745 92 C765 84 790 88 798 104 C806 120 802 142 790 160 C760 175 720 188 690 202 C640 225 590 244 540 256 C505 264 470 275 448 290 C440 298 446 308 460 310 C486 350 526 416 540 452 C500 470 440 486 400 492 C380 510 362 532 344 560 C270 548 170 510 96 468 Z M398 189 C411 160 455 150 486 168 C468 196 429 207 398 189 Z" fill="#FBF8F5" fill-rule="evenodd"/><path d="M784.8 157.1Q791.2 182.1 790.7 197.2Q781.6 182.7 771.2 163.3ZM752.5 171.1Q755.9 188.0 754.7 197.1Q749.6 188.3 743.2 174.8ZM726.1 181.4Q730.4 201.9 729.2 213.6Q722.7 202.2 714.9 185.9ZM693.3 195.0Q699.8 219.9 699.3 235.1Q690.2 220.6 679.7 201.2ZM657.7 210.8Q661.1 226.6 659.7 234.9Q654.8 227.2 648.5 214.7ZM623.9 224.5Q627.0 241.5 625.6 250.5Q620.7 241.7 614.5 228.0ZM589.1 236.8Q591.0 251.6 589.1 258.9Q585.3 251.7 580.5 239.6ZM553.7 247.4Q554.8 260.9 552.7 267.3Q549.8 260.8 546.0 249.4ZM517.6 256.4Q518.7 268.1 516.8 273.2Q514.3 268.2 510.8 258.3Z" fill="#FBF8F5"/><clipPath id="f"><path d="M398 189 C411 160 455 150 486 168 C468 196 429 207 398 189 Z"/></clipPath><g clip-path="url(#f)"><g class="vr-iris"><circle cx="444" cy="177" r="22" fill="#F5B82E"/><ellipse cx="445" cy="177" rx="5.5" ry="19" fill="#FBF8F5"/></g></g><path class="vr-parpado" d="M398 189 C411 160 455 150 486 168 C468 196 429 207 398 189 Z" fill="#FBF8F5" opacity="0"/></g></g></svg>